<svg width="1280" height="720" xmlns="http://www.w3.org/2000/svg" xmlns:xlink="http://www.w3.org/1999/xlink" overflow="hidden"><g><rect x="0" y="0" width="1280" height="720" fill="#FFFFFF"/><path d="M7 124.464C7 121.999 8.99851 120 11.4638 120L788.536 120C791.001 120 793 121.999 793 124.464L793 707.536C793 710.001 791.001 712 788.536 712L11.4638 712C8.99851 712 7 710.001 7 707.536Z" fill="#E6E6E6" fill-rule="evenodd"/><path d="M801 232.092C801 230.384 802.384 229 804.092 229L1269.91 229C1271.62 229 1273 230.384 1273 232.092L1273 708.908C1273 710.616 1271.62 712 1269.91 712L804.092 712C802.384 712 801 710.616 801 708.908Z" fill="#E6E6E6" fill-rule="evenodd"/><path d="M240 14.2298C240 12.446 241.446 11 243.23 11L1269.77 11C1271.55 11 1273 12.446 1273 14.2298L1273 108.77C1273 110.554 1271.55 112 1269.77 112L243.23 112C241.446 112 240 110.554 240 108.77Z" fill="#E6E6E6" fill-rule="evenodd"/><path d="M801 123.3C801 121.478 802.478 120 804.3 120L1269.7 120C1271.52 120 1273 121.478 1273 123.3L1273 218.699C1273 220.522 1271.52 222 1269.7 222L804.3 222C802.478 222 801 220.522 801 218.699Z" fill="#E6E6E6" fill-rule="evenodd"/><path d="M7 14.9845C7 12.7839 8.78392 11 10.9845 11L228.016 11C230.216 11 232 12.7839 232 14.9845L232 108.015C232 110.216 230.216 112 228.016 112L10.9845 112C8.78392 112 7 110.216 7 108.015Z" fill="#E6E6E6" fill-rule="evenodd"/></g></svg>