<svg width="1280" height="720" xmlns="http://www.w3.org/2000/svg" xmlns:xlink="http://www.w3.org/1999/xlink" overflow="hidden"><g><rect x="0" y="0" width="1280" height="720" fill="#FFFFFF"/><path d="M7 124.464C7 121.998 8.99846 120 11.4637 120L1268.54 120C1271 120 1273 121.998 1273 124.464L1273 707.536C1273 710.002 1271 712 1268.54 712L11.4637 712C8.99846 712 7 710.002 7 707.536Z" fill="#E6E6E6" fill-rule="evenodd"/><path d="M240 14.2298C240 12.446 241.446 11 243.23 11L1269.77 11C1271.55 11 1273 12.446 1273 14.2298L1273 108.77C1273 110.554 1271.55 112 1269.77 112L243.23 112C241.446 112 240 110.554 240 108.77Z" fill="#E6E6E6" fill-rule="evenodd"/><path d="M7 14.9845C7 12.7839 8.78392 11 10.9845 11L228.016 11C230.216 11 232 12.7839 232 14.9845L232 108.015C232 110.216 230.216 112 228.016 112L10.9845 112C8.78392 112 7 110.216 7 108.015Z" fill="#E6E6E6" fill-rule="evenodd"/></g></svg>